<svg width="1919" height="1194" viewBox="0 0 1919 1194" fill="none" xmlns="http://www.w3.org/2000/svg">
<path d="M2.5 762V13.5L1919 0.5V762H1733.5L1759.5 746.5L1772 713L1759.5 672L1733.5 643.5H1703H1651.5C1639.5 638.5 1613.4 619.2 1605 582C1596.6 544.8 1584.5 566.5 1579.5 582H1479H1368.5H1255H1178H1116.5H1057C1049.33 580.333 1034 578 1034 582V643.5V703L1057 762H2.5Z" fill="#080808"/>
<path d="M1636 690C1615.6 712.8 1606.83 726.833 1605 731V746.5L1579.5 793H1618L1651.5 777.5L1703 762L1733.5 713V690L1715.5 661.5L1679.5 656.5C1670.17 661.667 1648.4 675.6 1636 690Z" fill="#080808"/>
</svg>
